<?xml version="1.0" encoding="utf-8"?>
<!-- Generator: Adobe Illustrator 15.1.0, SVG Export Plug-In . SVG Version: 6.00 Build 0)  -->
<!DOCTYPE svg PUBLIC "-//W3C//DTD SVG 1.1//EN" "http://www.w3.org/Graphics/SVG/1.1/DTD/svg11.dtd">
<svg version="1.1" id="Livello_1" xmlns="http://www.w3.org/2000/svg" xmlns:xlink="http://www.w3.org/1999/xlink" x="0px" y="0px"
	 width="30px" height="30px" viewBox="3.906 3.906 32.188 32.188" enable-background="new 3.906 3.906 32.188 32.188"
	 xml:space="preserve">
<path id="rss-circle-icon" fill="#FFFFFF" d="M20,3.906C11.112,3.906,3.906,11.112,3.906,20c0,8.889,7.206,16.094,16.094,16.094
	c8.889,0,16.094-7.205,16.094-16.094C36.094,11.112,28.889,3.906,20,3.906z M14.781,27.859c-1.279,0-2.317-1.038-2.317-2.318
	c0-1.279,1.038-2.316,2.317-2.316c1.28,0,2.317,1.037,2.317,2.316C17.099,26.821,16.061,27.859,14.781,27.859z M20.319,27.859
	c-0.044-4.312-3.543-7.811-7.854-7.855v-3.433c6.214,0.044,11.243,5.073,11.288,11.288H20.319L20.319,27.859z M26.134,27.859
	c-0.011-3.653-1.437-7.086-4.021-9.67c-2.579-2.579-6.003-4.005-9.648-4.021v-3.433c9.438,0.033,17.081,7.683,17.102,17.124
	L26.134,27.859L26.134,27.859z"/>
</svg>
