<?xml version="1.0" encoding="utf-8"?>
<!-- Generator: Adobe Illustrator 15.1.0, SVG Export Plug-In . SVG Version: 6.00 Build 0)  -->
<!DOCTYPE svg PUBLIC "-//W3C//DTD SVG 1.1//EN" "http://www.w3.org/Graphics/SVG/1.1/DTD/svg11.dtd">
<svg version="1.1" id="Livello_1" xmlns="http://www.w3.org/2000/svg" xmlns:xlink="http://www.w3.org/1999/xlink" x="0px" y="0px"
	 width="30px" height="30px" viewBox="241 241 30 30" enable-background="new 241 241 30 30" xml:space="preserve">
<path id="github-icon" fill="#35AC19" d="M256,241c-8.284,0-15,6.886-15,15.38c0,6.794,4.298,12.561,10.259,14.593
	c0.75,0.143,0.991-0.333,0.991-0.739v-2.864c-4.172,0.931-5.042-1.813-5.042-1.813c-0.681-1.778-1.665-2.251-1.665-2.251
	c-1.361-0.954,0.103-0.936,0.103-0.936c1.506,0.109,2.3,1.586,2.3,1.586c1.338,2.351,3.508,1.671,4.365,1.277
	c0.134-0.993,0.522-1.672,0.952-2.056c-3.333-0.388-6.833-1.707-6.833-7.601c0-1.68,0.586-3.051,1.545-4.128
	c-0.156-0.388-0.669-1.952,0.144-4.07c0,0,1.26-0.413,4.126,1.577c1.197-0.34,2.48-0.512,3.755-0.518
	c1.274,0.006,2.56,0.178,3.758,0.518c2.863-1.99,4.121-1.577,4.121-1.577c0.816,2.117,0.303,3.682,0.146,4.07
	c0.963,1.077,1.545,2.448,1.545,4.128c0,5.907-3.51,7.208-6.85,7.588c0.537,0.478,1.029,1.414,1.029,2.849c0,2.058,0,3.715,0,4.221
	c0,0.409,0.24,0.888,1.001,0.738c5.957-2.036,10.249-7.799,10.249-14.592C271,247.886,264.283,241,256,241z"/>
</svg>
