<?xml version="1.0" encoding="utf-8"?>
<!-- Generator: Adobe Illustrator 15.1.0, SVG Export Plug-In . SVG Version: 6.00 Build 0)  -->
<!DOCTYPE svg PUBLIC "-//W3C//DTD SVG 1.1//EN" "http://www.w3.org/Graphics/SVG/1.1/DTD/svg11.dtd">
<svg version="1.1" id="Livello_1" xmlns="http://www.w3.org/2000/svg" xmlns:xlink="http://www.w3.org/1999/xlink" x="0px" y="0px"
	 width="40px" height="40px" viewBox="236 236 40 40" enable-background="new 236 236 40 40" xml:space="preserve">
<path id="github-icon" fill="#277F13" d="M256,236c-11.045,0-20,9.182-20,20.506c0,9.06,5.73,16.748,13.678,19.458
	c1,0.189,1.322-0.444,1.322-0.986v-3.818c-5.563,1.24-6.722-2.418-6.722-2.418c-0.908-2.371-2.22-3.002-2.22-3.002
	c-1.814-1.271,0.137-1.247,0.137-1.247c2.008,0.146,3.066,2.114,3.066,2.114c1.784,3.135,4.678,2.229,5.82,1.703
	c0.179-1.324,0.696-2.229,1.27-2.74c-4.443-0.518-9.111-2.276-9.111-10.135c0-2.24,0.781-4.068,2.061-5.504
	c-0.208-0.517-0.892-2.603,0.192-5.427c0,0,1.68-0.551,5.501,2.103c1.596-0.454,3.307-0.683,5.006-0.691
	c1.699,0.008,3.413,0.237,5.011,0.691c3.817-2.653,5.494-2.103,5.494-2.103c1.089,2.823,0.404,4.909,0.195,5.427
	c1.284,1.436,2.061,3.264,2.061,5.504c0,7.875-4.68,9.609-9.133,10.117c0.716,0.637,1.372,1.886,1.372,3.799
	c0,2.743,0,4.953,0,5.627c0,0.546,0.32,1.184,1.335,0.984c7.942-2.715,13.665-10.398,13.665-19.456C276,245.181,267.044,236,256,236
	z"/>
</svg>
