<?xml version="1.0" encoding="utf-8"?>
<!-- Generator: Adobe Illustrator 15.1.0, SVG Export Plug-In . SVG Version: 6.00 Build 0)  -->
<!DOCTYPE svg PUBLIC "-//W3C//DTD SVG 1.1//EN" "http://www.w3.org/Graphics/SVG/1.1/DTD/svg11.dtd">
<svg version="1.1" id="Livello_1" xmlns="http://www.w3.org/2000/svg" xmlns:xlink="http://www.w3.org/1999/xlink" x="0px" y="0px"
	 width="30px" height="30px" viewBox="3.906 4.303 32.188 31.393" enable-background="new 3.906 4.303 32.188 31.393"
	 xml:space="preserve">
<path id="github-icon" fill="#FFFFFF" d="M20,4.303c-8.888,0-16.094,7.206-16.094,16.094c0,7.111,4.611,13.144,11.007,15.271
	c0.804,0.149,1.063-0.348,1.063-0.773v-2.997C11.5,32.872,10.567,30,10.567,30c-0.731-1.861-1.786-2.356-1.786-2.356
	c-1.46-0.997,0.11-0.978,0.11-0.978c1.616,0.113,2.467,1.658,2.467,1.658c1.436,2.46,3.764,1.749,4.684,1.338
	c0.144-1.04,0.561-1.75,1.021-2.152c-3.576-0.405-7.332-1.786-7.332-7.954c0-1.757,0.628-3.193,1.658-4.319
	c-0.168-0.406-0.718-2.043,0.154-4.259c0,0,1.352-0.432,4.427,1.65c1.285-0.356,2.662-0.536,4.029-0.542
	c1.367,0.006,2.746,0.186,4.031,0.542c3.072-2.083,4.422-1.65,4.422-1.65c0.876,2.216,0.324,3.854,0.158,4.259
	c1.032,1.126,1.656,2.562,1.656,4.319c0,6.182-3.765,7.542-7.348,7.941c0.576,0.499,1.104,1.479,1.104,2.981
	c0,2.152,0,3.887,0,4.416c0,0.428,0.258,0.93,1.074,0.772c6.391-2.131,10.996-8.161,10.996-15.27
	C36.094,11.509,28.888,4.303,20,4.303z"/>
</svg>
