<?xml version="1.0" encoding="utf-8"?>
<!-- Generator: Adobe Illustrator 15.1.0, SVG Export Plug-In . SVG Version: 6.00 Build 0)  -->
<!DOCTYPE svg PUBLIC "-//W3C//DTD SVG 1.1//EN" "http://www.w3.org/Graphics/SVG/1.1/DTD/svg11.dtd">
<svg version="1.1" id="Livello_1" xmlns="http://www.w3.org/2000/svg" xmlns:xlink="http://www.w3.org/1999/xlink" x="0px" y="0px"
	 width="30px" height="30px" viewBox="241.417 242 30 30" enable-background="new 241.417 242 30 30" xml:space="preserve">
<path id="google-plus-circle-icon" fill="#277F13" d="M257.651,262.436c0,1.475-1.197,2.627-3.676,2.627
	c-1.939,0-3.339-1.228-3.339-2.701c0-1.445,1.643-2.691,3.582-2.67C256.369,259.691,257.651,261.031,257.651,262.436z M271.417,257
	c0,8.284-6.716,15-15,15s-15-6.716-15-15s6.716-15,15-15S271.417,248.716,271.417,257z M259.321,262.265
	c0-1.36-0.508-2.25-2.046-3.402c-1.56-1.138-1.94-1.779-0.452-2.93c0.839-0.648,1.427-1.513,1.427-2.581
	c0-1.163-0.476-2.218-1.369-2.73h1.267l1.079-1.132c0,0-4.067,0-4.828,0c-3.014,0-4.492,1.807-4.492,3.794
	c0,2.03,1.393,3.63,4.114,3.63c-0.422,0.852-0.252,1.638,0.438,2.2c-4.646,0-5.64,2.039-5.64,3.609c0,2.034,2.339,3.244,5.144,3.244
	C257.797,265.967,259.321,263.935,259.321,262.265z M265.617,251.939h-2.227v-2.228h-1.113v2.228h-2.228v1.113h2.228v2.228h1.113
	v-2.228h2.227V251.939z M256.31,253.424c-0.225-1.708-1.338-3.111-2.638-3.15c-1.301-0.039-2.174,1.269-1.949,2.978
	c0.225,1.709,1.461,2.903,2.763,2.942C255.786,256.233,256.534,255.133,256.31,253.424z"/>
</svg>
