<?xml version="1.0" encoding="utf-8"?>
<!-- Generator: Adobe Illustrator 15.1.0, SVG Export Plug-In . SVG Version: 6.00 Build 0)  -->
<!DOCTYPE svg PUBLIC "-//W3C//DTD SVG 1.1//EN" "http://www.w3.org/Graphics/SVG/1.1/DTD/svg11.dtd">
<svg version="1.1" id="Livello_1" xmlns="http://www.w3.org/2000/svg" xmlns:xlink="http://www.w3.org/1999/xlink" x="0px" y="0px"
	 width="30px" height="30px" viewBox="3.939 3.984 32.188 32.188" enable-background="new 3.939 3.984 32.188 32.188"
	 xml:space="preserve">
<path id="google-plus-circle-icon" fill="#FFFFFF" d="M21.357,25.911c0,1.581-1.285,2.817-3.944,2.817
	c-2.08,0-3.582-1.316-3.582-2.898c0-1.55,1.763-2.887,3.843-2.864C19.981,22.966,21.357,24.402,21.357,25.911z M36.127,20.078
	c0,8.889-7.206,16.094-16.094,16.094c-8.889,0-16.094-7.205-16.094-16.094c0-8.888,7.205-16.094,16.094-16.094
	C28.921,3.984,36.127,11.19,36.127,20.078z M23.148,25.727c0-1.46-0.545-2.414-2.195-3.65c-1.673-1.22-2.082-1.909-0.484-3.144
	c0.9-0.696,1.53-1.623,1.53-2.769c0-1.248-0.51-2.379-1.47-2.929h1.36l1.157-1.215c0,0-4.363,0-5.18,0
	c-3.234,0-4.819,1.938-4.819,4.07c0,2.179,1.495,3.895,4.414,3.895c-0.453,0.914-0.271,1.757,0.47,2.361
	c-4.985,0-6.052,2.188-6.052,3.872c0,2.183,2.509,3.481,5.519,3.481C21.514,29.699,23.148,27.519,23.148,25.727z M29.904,14.648
	h-2.39v-2.39H26.32v2.39H23.93v1.195h2.391v2.39h1.194v-2.39h2.39V14.648z M19.918,16.242c-0.241-1.833-1.436-3.337-2.831-3.379
	c-1.396-0.042-2.332,1.361-2.091,3.195c0.241,1.833,1.567,3.114,2.964,3.156C19.355,19.255,20.159,18.075,19.918,16.242z"/>
</svg>
