<?xml version="1.0" encoding="utf-8"?>
<!-- Generator: Adobe Illustrator 15.1.0, SVG Export Plug-In . SVG Version: 6.00 Build 0)  -->
<!DOCTYPE svg PUBLIC "-//W3C//DTD SVG 1.1//EN" "http://www.w3.org/Graphics/SVG/1.1/DTD/svg11.dtd">
<svg version="1.1" id="Livello_1" xmlns="http://www.w3.org/2000/svg" xmlns:xlink="http://www.w3.org/1999/xlink" x="0px" y="0px"
	 width="40px" height="40px" viewBox="236.417 237 40 40" enable-background="new 236.417 237 40 40" xml:space="preserve">
<path id="google-plus-circle-icon" fill="#35AC19" d="M258.062,264.247c0,1.967-1.596,3.503-4.901,3.503
	c-2.585,0-4.452-1.637-4.452-3.602c0-1.927,2.19-3.589,4.775-3.56C256.353,260.589,258.062,262.375,258.062,264.247z M276.417,257
	c0,11.046-8.954,20-20,20c-11.045,0-20-8.954-20-20c0-11.045,8.955-20,20-20C267.463,237,276.417,245.955,276.417,257z
	 M260.289,264.02c0-1.813-0.677-3-2.728-4.536c-2.08-1.518-2.587-2.373-0.603-3.907c1.118-0.865,1.902-2.018,1.902-3.441
	c0-1.551-0.635-2.957-1.826-3.64h1.689l1.438-1.51c0,0-5.423,0-6.437,0c-4.019,0-5.989,2.409-5.989,5.059
	c0,2.707,1.857,4.839,5.485,4.839c-0.562,1.136-0.336,2.184,0.583,2.934c-6.195,0-7.521,2.719-7.521,4.812
	c0,2.713,3.119,4.326,6.859,4.326C258.257,268.956,260.289,266.246,260.289,264.02z M268.684,250.252h-2.969v-2.97h-1.484v2.97
	h-2.97v1.484h2.97v2.97h1.484v-2.97h2.969V250.252z M256.274,252.232c-0.299-2.278-1.784-4.148-3.518-4.2
	c-1.735-0.052-2.899,1.692-2.599,3.971c0.3,2.278,1.948,3.87,3.684,3.922C255.576,255.978,256.573,254.51,256.274,252.232z"/>
</svg>
